<?xml version="1.0" encoding="utf-8"?>
<!-- Generator: Adobe Illustrator 25.2.1, SVG Export Plug-In . SVG Version: 6.00 Build 0)  -->
<svg version="1.1" id="Layer_1" xmlns="http://www.w3.org/2000/svg" xmlns:xlink="http://www.w3.org/1999/xlink" x="0px" y="0px"
	 viewBox="0 0 952.1 952.1" style="enable-background:new 0 0 952.1 952.1;" xml:space="preserve">
<path d="M909.6,364.7c-32.6-32.6-76.9-46.4-119.5-41.5c0.6-5.6,1-11.2,1-16.9c0-38.8-15.1-75.3-42.6-102.7
	c-27.4-27.4-63.9-42.5-102.7-42.5c-5.7,0-11.3,0.4-16.9,1c4.9-42.6-8.9-86.9-41.5-119.5C560,15.1,523.6,0,484.7,0
	S409.5,15.1,382,42.5l-3.5,3.5L116.4,556.6l-58.6,58.6C20.5,652.5,0,702.1,0,754.8C0,807.5,20.5,857,57.8,894.3
	c37.3,37.3,86.8,57.8,139.5,57.8s102.3-20.5,139.5-57.8l58.6-58.6l510.6-262.1l3.5-3.5C966.3,513.5,966.3,421.3,909.6,364.7z
	 M704.2,248c15.6,15.6,24.2,36.3,24.2,58.3c0,21.5-8.2,41.8-23.1,57.2L688.5,377L575.1,263.6l13.5-16.7
	c15.5-14.9,35.7-23.1,57.2-23.1C667.9,223.8,688.6,232.4,704.2,248z M386.6,397.3l-64.6,80.1L259.7,415l49.1-95.6L386.6,397.3z
	 M338.9,260.8l49.1-95.6l102.9,102.9l-64.6,80.1L338.9,260.8z M262.5,651.3l64.6-80.1l53.9,53.8l-80.1,64.6L262.5,651.3z
	 M366.7,522.1l64.6-80.1l78.9,78.9l-80.1,64.6L366.7,522.1z M282.4,526.6l-64.6,80.1l-37.4-37.4l49.1-95.6L282.4,526.6z
	 M345.5,734.3l80.1-64.6l52.9,52.9l-95.6,49.1L345.5,734.3z M474.7,630.1l80.1-64.6l77.9,77.9l-95.6,49.1L474.7,630.1z M604,525.9
	l80.1-64.6l102.9,102.9l-95.6,49.1L604,525.9z M559.3,481.2l-88.4-88.4l64.6-80.1l103.9,103.9L559.3,481.2z M484.7,62.8
	c22,0,42.8,8.6,58.3,24.2c32.2,32.2,32.2,84.5,0,116.7c0,0-1.2,1.2-1.2,1.2L530.5,219L418,106.5l11.7-22.7
	C444.9,70.2,464.2,62.8,484.7,62.8z M868.3,522.4l-22.7,11.7L733.2,421.7l12.9-10.4l1.3-1.1l1.2-1.2c32.2-32.2,84.5-32.2,116.7,0
	C896.3,440.1,897.4,490.1,868.3,522.4z"/>
</svg>
