<?xml version="1.0" encoding="utf-8"?>
<!-- Generator: Adobe Illustrator 25.2.1, SVG Export Plug-In . SVG Version: 6.00 Build 0)  -->
<svg version="1.1" id="Capa_1" xmlns="http://www.w3.org/2000/svg" xmlns:xlink="http://www.w3.org/1999/xlink" x="0px" y="0px"
	 viewBox="0 0 952.1 952.1" style="enable-background:new 0 0 952.1 952.1;" xml:space="preserve">
<g id="XMLID_291_">
	<path id="XMLID_293_" d="M901.5,457.6c33-2.8,55.3-18.9,49.8-35.8l-45.9-142c-3.5-10.7-17.5-19.7-37.1-23.8L687,218.6
		c-29.8-6.2-61.7-9.3-93.9-9.3H295.7l-174.6-51.9V31.1C121.1,13.9,94,0,60.6,0S0,13.9,0,31.1v144.1c0,11.1,11.5,21.4,30.2,27
		l260.3,77.4v258.5h0.9l-1.7,291.4c0,6.8,3.1,13.2,8.7,18.8H219c-20.3,0-36.8,8.5-36.8,18.9v65.9c0,10.5,16.5,18.9,36.8,18.9h59.4
		c20.3,0,36.8-8.5,36.8-18.9v-33h409.1v33c0,10.5,16.5,18.9,36.8,18.9h59.4c20.3,0,36.8-8.5,36.8-18.9v-65.9
		c0-10.5-16.5-18.9-36.8-18.9H442.5c5.5-5.6,8.7-11.9,8.7-18.6l1.7-291.6h100.3l78.2,21.3l-63.4,126c-11.2,22.2,14.8,44.9,57.9,50.6
		c6.8,0.9,13.6,1.3,20.3,1.3c35.9,0,68.7-12.4,78.1-31.1l79.4-157.7c9.4-18.6-7.3-38.1-40.3-47.1l-114.7-31.3V277.7l142.8,29.6
		L831.8,432c4.9,15.2,30.6,26,59.7,26C894.8,458,898.1,457.9,901.5,457.6z"/>
	<ellipse id="XMLID_292_" cx="469.6" cy="109.9" rx="140.1" ry="72.1"/>
</g>
</svg>
