<?xml version="1.0" encoding="utf-8"?>
<!-- Generator: Adobe Illustrator 25.2.1, SVG Export Plug-In . SVG Version: 6.00 Build 0)  -->
<svg version="1.1" id="Layer_1" xmlns="http://www.w3.org/2000/svg" xmlns:xlink="http://www.w3.org/1999/xlink" x="0px" y="0px"
	 viewBox="0 0 952.1 952.1" style="enable-background:new 0 0 952.1 952.1;" xml:space="preserve">
<g transform="translate(0.000000,888.000000) scale(0.100000,-0.100000)">
	<path d="M3454.5,8873.8c-300.6-79.4-546.2-462.3-601.3-935.4c-14.9-126.6-6.7-352.9,17.9-484.9c37.2-208.1,133.2-443,232.9-576
		c87.1-114.8,204.6-202.7,322.2-241.4c67.7-21.5,227-16.1,293.9,10.7c195,79.4,362.4,282.1,458.4,555.7
		c33.5,96.5,71.4,269.2,85.6,389.4c31.3,274.6-32,627.5-155.5,865.7c-136.2,262.8-323,410.8-533.6,421.6
		C3528.2,8881.3,3473.8,8879.2,3454.5,8873.8z"/>
	<path d="M486.7,8695.7c-188.3-57.9-334.9-236-424.2-512.7C14.2,8035-0.7,7928.8,0,7742.1c0-178.1,11.9-268.2,55.1-417.3
		c60.3-207,176.4-386.2,309.6-474.1c177.1-118,381.8-90.1,541,75.1c256,263.9,349,788.4,219.5,1237.9
		C1014.3,8547.7,741.2,8775.1,486.7,8695.7z M705.5,8367.5c123.5-59,230.7-233.8,269.4-437.7c20.1-106.2,18.6-283.2-3.7-386.2
		c-26-121.2-58-200.6-116.8-285.3c-78.9-114.8-159.3-164.1-267.9-165.2c-136.9,0-268.6,123.4-339.3,317.5
		c-43.9,120.1-53.6,184.5-53.6,336.8c0,119.1,2.2,143.7,20.8,219.9C294,8299.9,499.4,8466.2,705.5,8367.5z"/>
	<path d="M7868.9,7847.2c-490.4-36.5-1042.6-92.3-1410.2-142.7c-40.9-5.4-113.1-15-160-21.5c-118.3-16.1-224-31.1-293.9-42.9
		c-32.7-5.4-94.5-15-137.7-21.5c-70-10.7-196.5-32.2-387-65.4c-35-5.4-84.8-15-111.6-20.4c-26.8-5.4-100.5-19.3-163.7-32.2
		c-264.2-51.5-327.4-76.2-427.2-165.2c-114.6-103-149.6-184.5-186.8-436.6c-11.9-77.2-11.2-84.7,0.7-118
		c44.7-126.6,137.7-277.8,206.1-335.8c86.3-72.9,258.2-81.5,466.6-21.5c216.6,62.2,657.1,269.2,1194.4,562.1
		c78.1,41.8,176.4,95.5,219.5,118c43.2,22.5,133.2,70.8,200.9,107.3c67.7,35.4,184.6,92.3,260.5,124.4
		c146.6,63.3,177.1,77.2,439.1,197.4c409.3,187.7,416,192,452.5,251c26.8,44,29,54.7,11.9,64.4
		C8031.9,7854.8,7956,7854.8,7868.9,7847.2z"/>
	<path d="M174.9,6655.5c-12.7-18.2-23.1-37.5-23.1-42.9c0-24.7,859.5-464.5,1306-668.3c264.9-120.1,504.6-226.3,703.2-310
		c189.8-80.5,247.1-105.1,375.8-160.9c452.5-197.4,607.2-244.6,759.1-231.7c120.6,9.7,178.6,50.4,250.8,179.1
		c38.7,67.6,72.9,180.2,72.9,237.1c-0.7,62.2-31.3,221-57.3,296.1c-48.4,139.5-172.6,282.1-302.1,346.5
		c-206.9,103-615.4,174.8-1143.8,202.7c-436.8,22.5-730,46.1-1056.7,85.8c-46.9,6.4-145.9,18.2-219.5,26.8
		c-142.1,17.2-253.8,32.2-368.4,49.3c-38.7,5.4-116.8,13.9-172.6,17.2l-102,6.4L174.9,6655.5z"/>
	<path d="M5777.8,4536.9c-99.7-59-188.3-178.1-235.2-314.3c-23.8-68.7-28.3-94.4-31.3-168.4c-3.7-108.3,11.2-175.9,62.5-287.5
		c117.6-255.3,321.5-459.1,686.9-685.5c368.4-227.4,800.7-464.5,1232.4-675.8c86.3-41.8,160.7-78.3,166.7-81.5
		c43.2-21.5,353.5-166.3,447.2-208.1c575.2-257.4,1155.7-535.3,1360.4-653.3c21.6-12.9,42.4-22.5,46.1-22.5
		c4.5,0,7.4,56.9,7.4,138.4v138.4l-268.6,251c-148.1,137.3-456.9,430.2-686.1,650.1C7764,3387,7403.1,3703.4,7009.4,3982.3
		c-407.8,288.6-721.8,449.5-1086.5,557.8C5831.4,4566.9,5828.4,4566.9,5777.8,4536.9z"/>
	<path d="M5125.2,3684.1c-139.2-100.8-192-168.4-241.1-302.5c-15.6-42.9-17.9-62.2-17.9-166.3c0.7-109.4,2.2-123.4,26-202.7
		c88.6-299.3,294.7-583.5,707-975.1c462.1-437.7,815.6-735.9,1730.2-1457.8c253.8-200.6,547-433.4,651.2-517
		c104.2-84.7,216.6-173.8,249.3-199.5c32.7-25.7,139.9-115.9,238.1-201.7c98.2-85.8,222.5-188.8,276.1-228.5
		c87.1-66.5,102-74,139.9-74c40.2,0,41.7,1.1,34.2,22.5c-14.9,38.6-61,106.2-107.9,157.7c-24.6,26.8-86.3,107.3-137.7,179.1
		c-51.3,70.8-203.2,278.9-338.6,461.3c-134.7,182.4-418.2,570.7-628.8,863.5c-436.1,606.1-494.1,685.5-658.6,902.1
		c-549.2,721.9-913.1,1116.7-1357.4,1471.7c-143.6,114.8-458.4,331.5-477,329.3C5210,3745.3,5170.6,3717.4,5125.2,3684.1z"/>
</g>
</svg>
